<svg fill="none" xmlns="http://www.w3.org/2000/svg" viewBox="0 0 315 42">
  <g filter="url(#filter0_d)">
    <path fill-rule="evenodd" clip-rule="evenodd"
          d="M8.073 4C8.033 7.069 8 10.106 8 12.677c.766.519 2.298.95 3.482.95 1.114 0 2.159.433 2.298 1.038.209.604 2.02 1.123 4.735 1.296 2.438.086 4.596.604 4.875 1.123.278.605 3.273.691 9.122.345 4.736-.345 9.262-.604 10.028-.518 4.178.173 10.515 1.296 11.142 1.9 1.044 1.038 5.292.433 5.919-.863.627-1.296 6.824-2.679 7.381-1.555.21.345.697.518 1.045.259.348-.346 2.855-.691 5.501-.864 3.621-.173 4.875 0 4.875.864 0 1.9 6.267 3.37 8.147 1.9.418-.345 1.532-.259 2.438.173.835.346 3.482.605 5.78.519 3.133-.173 5.083.259 7.66 1.728 3.83 2.16 11.977 2.765 14.763 1.123 1.114-.691 1.811-.691 2.437 0 1.184 1.123 10.098 1.21 10.724.086.558-1.21 3.413-2.505 6.825-2.937 1.532-.26 3.551-.864 4.387-1.469 1.811-1.123 6.198.26 9.401 2.938 1.323 1.123 2.298 1.382 3.482.864.836-.432 2.925-1.037 4.526-1.383 2.925-.518 2.995-.518 2.995 1.987v2.42l5.362-1.642c2.994-.95 6.824-1.9 8.565-2.16 1.811-.26 3.691-1.123 4.387-2.074 1.045-1.382 1.95-1.641 4.736-1.296 1.95.173 3.899.778 4.387 1.296.487.519 2.368 1.037 4.248 1.296 2.089.173 3.551.778 3.969 1.729.348.777 1.045 1.382 1.602 1.382.487 0 1.532.95 2.298 2.16.766 1.123 2.716 2.678 4.387 3.37 3.412 1.468 4.109.95 4.109-3.197 0-1.47.487-2.592 1.183-2.938.697-.346 1.393-.864 1.602-1.21.696-1.21 8.705-4.924 8.914-4.147.139.432.766.778 1.462.778.627 0 1.532.432 2.019 1.037.627.777.836.777.836 0 0-1.21 2.298-1.383 4.039-.26 7.521 5.012 12.117 5.876 15.459 2.852 1.95-1.815 2.716-1.988 9.958-1.728 4.248.172 9.819-.173 12.257-.692 2.924-.69 5.083-.777 6.197-.259.975.432 2.368.519 3.204.26 4.248-1.729 20.403-2.16 21.448-.519.418.518 1.323 1.037 2.019 1.037 2.368 0 6.345-6.15 5.829-9.947.001-.881.111-1.49.23-2.142.138-.753.286-1.565.286-2.921V4H8.073z"
          fill="#fff"/>
  </g>
  <defs>
    <filter id="filter0_d" x="0" y="0" width="314.96" height="41.407" filterUnits="userSpaceOnUse"
            color-interpolation-filters="sRGB">
      <feFlood flood-opacity="0" result="BackgroundImageFix"/>
      <feColorMatrix in="SourceAlpha" values="0 0 0 0 0 0 0 0 0 0 0 0 0 0 0 0 0 0 127 0"/>
      <feOffset dy="4"/>
      <feGaussianBlur stdDeviation="4"/>
      <feColorMatrix values="0 0 0 0 0 0 0 0 0 0 0 0 0 0 0 0 0 0 0.15 0"/>
      <feBlend in2="BackgroundImageFix" result="effect1_dropShadow"/>
      <feBlend in="SourceGraphic" in2="effect1_dropShadow" result="shape"/>
    </filter>
  </defs>
</svg>
