<svg width="77" height="56" viewBox="0 0 77 56" fill="none" xmlns="http://www.w3.org/2000/svg">
    <path fill-rule="evenodd" clip-rule="evenodd" d="M53.0531 0C52.2386 0 51.5791 0.660262 51.5791 1.47399V54.526C51.5791 55.3406 52.2386 56 53.0531 56C53.8669 56 54.5263 55.3406 54.5263 54.526V1.47399C54.5263 0.660262 53.8669 0 53.0531 0ZM14.7364 7.36828C14.7364 6.55455 15.3967 5.89513 16.2104 5.89513C17.0241 5.89513 17.6844 6.55455 17.6844 7.36828V48.6317C17.6844 49.4454 17.0241 50.1057 16.2104 50.1057C15.3967 50.1057 14.7364 49.4454 14.7364 48.6317V7.36828ZM8.84727 16.0715C8.03353 16.0715 7.37327 16.7318 7.37327 17.5455V37.9487C7.37327 38.7633 8.03353 39.4227 8.84727 39.4227C9.661 39.4227 10.3213 38.7633 10.3213 37.9487V17.5455C10.3213 16.7318 9.661 16.0715 8.84727 16.0715ZM1.47399 22.1057C0.659419 22.1057 0 22.7652 0 23.5789V30.9472C0 31.7618 0.659419 32.4212 1.47399 32.4212C2.28773 32.4212 2.94715 31.7618 2.94715 30.9472V23.5789C2.94715 22.7652 2.28773 22.1057 1.47399 22.1057ZM23.5792 13.2635C22.7654 13.2635 22.1052 13.9229 22.1052 14.7375V39.7895C22.1052 40.6032 22.7654 41.2635 23.5792 41.2635C24.3929 41.2635 25.0532 40.6032 25.0532 39.7895V14.7375C25.0532 13.9229 24.3929 13.2635 23.5792 13.2635ZM44.3544 11.1697C44.3544 10.3551 45.0138 9.69571 45.8276 9.69571C46.6413 9.69571 47.3016 10.3551 47.3016 11.1697V44.3253C47.3016 45.139 46.6413 45.7985 45.8276 45.7985C45.0138 45.7985 44.3544 45.139 44.3544 44.3253V11.1697ZM60.4219 11.7894C59.6082 11.7894 58.9479 12.4497 58.9479 13.2634V42.7366C58.9479 43.5511 59.6082 44.2106 60.4219 44.2106C61.2356 44.2106 61.8951 43.5511 61.8951 42.7366V13.2634C61.8951 12.4497 61.2356 11.7894 60.4219 11.7894ZM66.3144 20.6318C66.3144 19.818 66.9747 19.1578 67.7884 19.1578C68.6021 19.1578 69.2616 19.818 69.2616 20.6318V35.3683C69.2616 36.1821 68.6021 36.8423 67.7884 36.8423C66.9747 36.8423 66.3144 36.1821 66.3144 35.3683V20.6318ZM29.4751 25.0528C29.4751 24.2391 30.1345 23.5788 30.9482 23.5788C31.762 23.5788 32.4222 24.2391 32.4222 25.0528V30.9471C32.4222 31.7617 31.762 32.4211 30.9482 32.4211C30.1345 32.4211 29.4751 31.7617 29.4751 30.9471V25.0528ZM75.1572 23.0856C74.3435 23.0856 73.6832 23.7451 73.6832 24.5588V30.9354C73.6832 31.7492 74.3435 32.4094 75.1572 32.4094C75.9709 32.4094 76.6312 31.7492 76.6312 30.9354V24.5588C76.6312 23.7451 75.9709 23.0856 75.1572 23.0856ZM36.7021 21.7491C36.7021 20.9354 37.3615 20.2759 38.176 20.2759C38.9898 20.2759 39.6492 20.9354 39.6492 21.7491V33.7451C39.6492 34.5588 38.9898 35.2191 38.176 35.2191C37.3615 35.2191 36.7021 34.5588 36.7021 33.7451V21.7491Z" fill="#928F82"/>
</svg>
