<svg width="47" height="36" viewBox="0 0 47 36" fill="none" xmlns="http://www.w3.org/2000/svg">
<g opacity="0.5">
<path d="M42.9319 4.81382H30.6743L28.1991 0.655636C27.957 0.249084 27.5189 0 27.0458 0H19.261C18.7879 0 18.3497 0.249084 18.1077 0.655636L15.6325 4.81382H11.6102V3.89735C11.6102 3.15612 11.0093 2.55519 10.2681 2.55519H5.3019C4.56052 2.55519 3.95973 3.15612 3.95973 3.89735V4.81382H3.37507C1.51093 4.81382 0 6.3249 0 8.18874V32.6249C0 34.4889 1.51093 36 3.37492 36H42.9319C44.7959 36 46.3069 34.4889 46.3069 32.6249V8.18874C46.3071 6.3249 44.7959 4.81382 42.9319 4.81382ZM23.1534 30.0135C17.8477 30.0135 13.5467 25.7125 13.5467 20.4067C13.5467 15.1012 17.8477 10.8 23.1534 10.8C28.4591 10.8 32.7601 15.1012 32.7601 20.4067C32.7601 25.7125 28.4591 30.0135 23.1534 30.0135ZM40.8262 11.7719H36.6205C35.8793 11.7719 35.2784 11.171 35.2784 10.4296C35.2784 9.68822 35.8793 9.08728 36.6205 9.08728H40.8262C41.5677 9.08728 42.1685 9.68822 42.1685 10.4296C42.1685 11.171 41.5676 11.7719 40.8262 11.7719Z" fill="#373737"/>
<path d="M23.1527 27.1178C26.8592 27.1178 29.8639 24.1131 29.8639 20.4066C29.8639 16.7 26.8592 13.6953 23.1527 13.6953C19.4461 13.6953 16.4414 16.7 16.4414 20.4066C16.4414 24.1131 19.4461 27.1178 23.1527 27.1178Z" fill="#373737"/>
</g>
</svg>
