<svg width="32" height="32" viewBox="0 0 32 32" fill="none" xmlns="http://www.w3.org/2000/svg">
<path d="M28.3255 1.28813C26.6051 -0.429378 23.8192 -0.429378 22.0988 1.28813L20.5401 2.85549L3.94821 19.4402L3.91294 19.4757C3.9044 19.4843 3.9044 19.4934 3.89531 19.4934C3.87768 19.5198 3.85124 19.546 3.83388 19.5724C3.83388 19.5812 3.82479 19.5812 3.82479 19.5901C3.80716 19.6165 3.79862 19.6341 3.78071 19.6606C3.77217 19.6694 3.77217 19.6779 3.76336 19.687C3.75454 19.7135 3.74573 19.7311 3.73664 19.7576C3.73664 19.7661 3.7281 19.7661 3.7281 19.7752L0.0468476 30.8462C-0.0611409 31.1613 0.0209524 31.5104 0.258141 31.7443C0.424807 31.9088 0.6496 32.0008 0.883483 32C0.979074 31.9983 1.07384 31.9835 1.1653 31.9559L12.2267 28.2655C12.2352 28.2655 12.2352 28.2655 12.2443 28.257C12.2721 28.2487 12.2989 28.2368 12.3234 28.2214C12.3303 28.2206 12.3363 28.2176 12.3413 28.2129C12.3674 28.1952 12.4027 28.1773 12.4292 28.1597C12.4553 28.1423 12.482 28.1159 12.5085 28.0983C12.5173 28.0892 12.5259 28.0892 12.5259 28.0806C12.5349 28.0718 12.5526 28.0633 12.5614 28.0454L30.712 9.89304C32.4293 8.1725 32.4293 5.3863 30.712 3.66603L28.3255 1.28813ZM11.9449 26.1956L5.81541 20.0659L21.1567 4.72315L27.2861 10.8529L11.9449 26.1956ZM4.95206 21.6952L10.3069 27.0502L2.26612 29.7276L4.95206 21.6952ZM29.4704 8.65987L28.5368 9.60238L22.4071 3.47208L23.3498 2.52984C24.3809 1.49945 26.0522 1.49945 27.0836 2.52984L29.4789 4.92537C30.5023 5.96128 30.4985 7.62892 29.4704 8.65987Z" fill="white"/>
</svg>
