<svg fill="none" xmlns="http://www.w3.org/2000/svg" viewBox="0 0 34 34">
  <circle cx="17" cy="17" r="16" stroke="#FFF9E2" stroke-width="2"/>
  <path
    d="M17.005 22.76a.817.817 0 01-1.339.63l-4.469-3.703h-2.38A.817.817 0 018 18.869v-3.256c0-.452.366-.818.817-.818h2.38l4.47-3.703a.817.817 0 011.34.63l-.002 11.039zm3.142-1.277a.817.817 0 01-.637-.237l-.11-.11a.817.817 0 01-.078-1.064 4.717 4.717 0 00.935-2.83 4.7 4.7 0 00-1.06-2.995.817.817 0 01.055-1.093l.11-.11a.819.819 0 011.211.06 6.465 6.465 0 011.471 4.138c0 1.422-.45 2.777-1.3 3.915a.818.818 0 01-.597.326zm3.38 2.526a.818.818 0 01-1.204.051l-.107-.107c-.3-.3-.32-.78-.047-1.104a8.726 8.726 0 002.044-5.608c0-2.13-.777-4.18-2.189-5.774a.818.818 0 01.033-1.119l.107-.107a.818.818 0 011.19.034A10.48 10.48 0 0126 17.24c0 2.475-.878 4.878-2.474 6.768z"
    fill="#FFF9E2"/>
</svg>
