<svg width="325" height="64" viewBox="0 0 325 64" fill="none" xmlns="http://www.w3.org/2000/svg">
<path opacity="0.7" d="M31.5114 1.642H2.42616C2.42616 8.48436 0.426163 15.3267 0.426163 22.1691C0.426163 27.0767 -0.619881 32.4297 0.565715 37.2739C1.83624 42.4651 1.68213 47.6016 1.68213 52.8521C1.68213 56.0736 -0.305335 62.8359 7.47355 62.8359H67.6206C82.1282 62.8359 96.4176 62.8082 110.882 62.1474C118.778 61.7867 126.606 62.2016 134.466 62.4271C140.622 62.6037 146.647 63.9433 152.747 63.9978C159.055 64.0542 165.034 62.9901 171.273 62.8574C176.692 62.7422 182.143 62.8359 187.566 62.8359C207.358 62.8359 227.078 63.1036 246.806 63.6105C261.196 63.9803 275.622 63.9978 290.067 63.9978C298.274 63.9978 306 62.9218 313.93 61.588C317.189 61.0398 323.839 61.2368 323.839 58.7692C323.839 56.8236 324.467 54.9466 324.467 52.9812V39.985C324.467 36.2636 325.855 31.3544 324.153 27.785C323.069 25.5127 323.839 22.5864 323.839 20.2326C323.839 18.2188 323.211 16.2596 323.211 14.2078C323.211 11.2789 322.306 8.96595 321.466 6.11751C321.069 4.77058 321.581 2.41661 318.501 2.41661C315.793 2.41661 312.067 1.62611 309.395 1.2547C305.078 0.654786 300.043 0.48009 295.614 0.48009H277.996C262.564 0.48009 247.132 0.11722 232.188 2.99756C225.404 4.30503 217.205 3.57852 210.138 3.57852C201.415 3.57852 192.105 3.54026 183.449 2.80391C177.29 2.27996 171.345 1.30732 165.098 0.95346C156.82 0.484617 148.501 0.0927864 140.188 0.0927864H109.73C91.2748 0.0927864 72.9841 -0.438017 54.5027 1.03953C47.0774 1.63316 39.0182 1.642 31.5114 1.642Z" fill="#EEE7CE"/>
</svg>
