<svg viewBox="0 0 240 249" fill="none" xmlns="http://www.w3.org/2000/svg">
<g filter="url(#filter0_i)">
<path d="M135.525 0.265488C135.107 0.816559 113.832 1.97995 109.326 1.73502C104.728 1.42886 96.5055 1.85748 95.3441 2.40855C94.6938 2.77594 93.6719 3.02086 93.0215 3.02086C92.4177 3.02086 91.5351 3.26579 91.0705 3.57195C89.8628 4.42917 84.1956 5.59254 80.3865 5.83748C78.482 5.8987 76.2987 6.26608 75.509 6.57224C74.6729 6.87839 72.6754 7.06209 71.0032 7.00085C69.3309 6.93962 67.5657 7.12331 67.0547 7.36824C65.847 7.91931 59.5759 8.7153 55.4417 8.83777C53.6765 8.899 46.4299 9.14392 39.3692 9.38884C30.4039 9.75623 26.2232 9.69499 25.5728 9.20515C24.8761 8.7153 24.0399 8.77654 22.3676 9.38884C21.1599 9.87869 18.8837 10.7359 17.3508 11.287C15.8179 11.8381 13.6346 12.879 12.4733 13.6138C11.3585 14.3485 10.1971 14.9608 9.96488 14.9608C9.17519 14.9608 9.12874 16.859 9.82553 17.8387C10.383 18.5734 10.4294 18.9408 9.87198 20.2267C9.54681 21.0227 9.40746 22.3085 9.54681 23.0433C9.68617 23.778 9.45391 25.2476 9.08229 26.2272C8.66422 27.3294 8.57132 28.2479 8.80358 28.4928C9.03584 28.6765 9.22165 29.7174 9.22165 30.7583C9.22165 31.8605 9.40746 33.6362 9.63972 34.6771C10.0113 36.2691 9.91843 36.9426 9.17519 38.1672C8.57132 39.2081 8.47841 39.7592 8.85003 39.8817C9.22165 40.0654 9.08229 40.9838 8.38551 42.882C7.82808 44.4127 7.27065 46.4946 7.17775 47.5355C7.1313 48.5764 6.71322 50.0459 6.2487 50.8419C5.83063 51.6379 5.50547 53.4749 5.50547 54.9444C5.50547 56.3527 5.22675 58.1896 4.85513 58.9244C4.48352 59.6591 4.06545 61.4961 3.87964 63.0268C3.46157 67.6191 3.36866 68.0477 2.67188 68.7825C1.78928 69.701 1.60348 73.6197 1.92864 84.4575C1.97509 85.6209 1.83574 87.2129 1.64993 87.8864C1.37121 88.9274 1.51057 89.2948 2.30026 89.5397C2.81123 89.7234 3.18285 90.152 3.0435 90.3969C2.67188 91.1317 3.64738 94.7443 4.71578 96.7037C5.64482 98.4793 5.73773 100.255 4.94804 102.643C4.66933 103.561 4.34416 105.031 4.29771 105.888C4.2048 106.684 3.18285 108.582 2.02155 110.052C-0.254615 113.052 -0.301067 113.236 0.488621 117.155C0.953144 119.42 0.906692 120.216 0.395717 121.502C-0.115258 122.788 -0.115258 123.216 0.302812 123.584C0.627978 123.829 0.906692 124.564 0.906692 125.237C0.860239 125.849 0.860239 127.319 0.860239 128.482C0.813787 129.584 1.04605 130.87 1.27831 131.176C1.55702 131.544 1.78928 132.401 1.78928 133.136C1.78928 133.809 2.30026 135.401 2.99704 136.687C4.06545 138.769 4.1119 139.075 3.46157 139.932C2.43962 141.28 2.53252 141.953 3.83318 142.382C4.66933 142.627 4.99449 143.239 5.22675 145.137C5.36611 146.423 5.73773 147.525 6.01644 147.525C6.29515 147.525 6.34161 147.892 6.06289 148.505C5.83063 149.117 5.78418 150.464 6.01644 151.75C6.29515 153.342 6.20225 154.199 5.69128 154.934C5.31966 155.485 4.85513 156.955 4.71578 158.179C4.48352 160.077 4.57642 160.383 5.41256 160.383C6.48096 160.383 8.47841 165.343 8.98939 169.384C9.2681 171.527 9.12874 172.14 8.1997 173.364C6.80613 175.14 5.87708 177.528 6.1558 178.508C6.29515 178.936 6.06289 179.61 5.69128 179.977C5.31966 180.406 5.04094 181.018 5.04094 181.324C5.04094 181.63 4.57642 182.671 4.06545 183.651C3.50802 184.631 3.08995 186.162 3.1364 187.141C3.18285 188.06 3.22931 189.652 3.22931 190.57C3.22931 191.55 3.50802 192.958 3.87964 193.693C4.99449 195.836 5.22675 199.449 4.39061 201.102C3.36866 203.184 3.46157 203.735 4.99449 204.959C6.06289 205.817 6.2487 206.245 5.92354 207.102C5.59837 207.776 5.69128 208.694 6.1558 209.919C6.52742 210.837 6.75968 211.817 6.62032 212.001C6.48096 212.185 6.71322 213.348 7.08484 214.573C7.50291 215.797 7.68872 217.083 7.59582 217.389C7.45646 217.634 7.2242 220.267 7.08484 223.145C6.89903 228.043 6.94549 228.594 8.15324 231.411C8.85003 233.125 9.73262 234.472 10.0578 234.472C10.4294 234.472 10.5223 234.962 10.3365 236.003C10.0113 237.656 11.0333 241.269 11.7765 241.085C12.0088 241.024 12.8449 241.33 13.6346 241.759C14.7959 242.432 15.4927 242.249 19.2089 240.534C24.8761 237.901 28.4529 237.412 57.4855 235.697C66.4973 235.207 68.9128 235.207 69.1915 235.82C69.3773 236.248 69.7025 236.371 69.8883 236.187C70.0277 235.942 70.7709 236.126 71.5141 236.616C72.3967 237.228 74.3477 237.534 77.5994 237.534C80.2472 237.595 83.313 237.901 84.4743 238.208C85.6356 238.575 88.0511 239.065 89.8163 239.371C91.628 239.616 93.8112 240.106 94.6938 240.473C96.3196 241.147 117.873 241.636 130.23 241.269C138.359 241.085 151.087 242.188 153.595 243.351C155.314 244.147 156.661 244.208 163.025 243.596C169.296 243.045 171.154 243.106 174.499 243.841C181.652 245.494 209.199 246.78 221.648 246.045C225.457 245.8 225.829 245.923 226.618 247.208C227.687 248.862 229.963 249.596 230.66 248.433C231.31 247.392 232.193 242.371 232.193 239.861C232.193 238.759 232.564 236.983 233.029 235.881C235.769 229.268 236.605 227.737 238.046 226.819C239.996 225.594 240.507 223.39 239.486 221.002C239.067 220.083 238.835 219.165 239.021 218.92C239.16 218.736 238.928 218.001 238.464 217.328C237.72 216.287 237.627 215.185 237.72 210.837C237.767 207.96 237.999 205.021 238.185 204.286C238.417 203.49 238.51 202.081 238.417 201.102C238.324 200.061 238.278 197.857 238.324 196.203C238.556 185.366 238.51 184.692 236.559 180.222C234.236 174.773 233.679 172.874 233.633 170.058C233.586 168.772 233.307 167.547 232.936 167.303C232.193 166.751 231.589 157.934 232.332 157.934C232.611 157.934 232.611 157.628 232.285 157.138C231.821 156.403 232.285 150.097 232.889 148.75C233.075 148.382 233.307 145.811 233.447 143.055C233.54 140.3 233.772 135.952 233.911 133.442C234.329 125.298 234.376 122.421 234.097 122.421C233.958 122.421 233.818 120.829 233.772 118.869C233.725 115.746 233.4 112.93 232.936 111.093C232.425 109.133 233.54 100.867 234.794 97.5609C235.862 94.6218 236.141 93.0298 236.234 89.0498C236.327 86.3557 236.652 80.1714 236.977 75.2729C237.581 66.272 237.349 59.8428 236.327 57.6998C235.909 56.7813 236.002 56.0466 236.745 54.0872C237.535 52.0666 237.581 51.2706 237.209 48.6376C236.977 46.9232 236.698 43.6167 236.652 41.29C236.559 38.902 236.373 34.922 236.187 32.3503C235.909 28.1254 236.002 27.6356 236.884 26.5334C237.442 25.9211 238.138 24.6965 238.464 23.8393C239.253 21.7574 238.975 15.8181 238.046 14.8996C237.627 14.5322 237.302 13.9199 237.302 13.5525C237.302 12.3279 234.004 11.4707 226.386 10.7359C225.643 10.6747 224.156 10.3073 223.134 9.93993C220.487 8.899 216.399 8.34793 211.196 8.34793C207.898 8.34793 206.783 8.16423 206.922 7.61316C207.155 6.81715 204.368 5.83748 198.608 4.79655C195.031 4.18425 191.593 4.4904 190.571 5.53131C190.246 5.8987 189.875 5.77625 189.549 5.34763C189.224 4.79655 187.273 4.4904 183.557 4.36794C180.538 4.24548 176.821 3.8781 175.288 3.51071C172.269 2.77594 170.132 2.77594 166.463 3.38824C164.604 3.6944 163.954 3.57195 163.49 2.77594C163.118 2.16364 162.096 1.79625 160.935 1.73502C159.913 1.6738 158.519 1.4901 157.869 1.24518C157.219 1.00026 155.779 1.12271 154.617 1.4901C152.991 2.04117 152.155 2.04117 150.901 1.42886C148.671 0.387955 146.72 0.387955 145.791 1.4901C145.095 2.2861 144.909 2.2861 144.026 1.18394C142.911 -0.163132 141.796 -0.408051 141.518 0.694107C141.378 1.18394 141.007 1.24518 140.403 0.877792C139.474 0.326721 135.804 -0.163132 135.525 0.265488Z" fill="#F3ECD4"/>
</g>
<defs>
<filter id="filter0_i" x="0" y="0" width="240" height="251" filterUnits="userSpaceOnUse" color-interpolation-filters="sRGB">
<feFlood flood-opacity="0" result="BackgroundImageFix"/>
<feBlend mode="normal" in="SourceGraphic" in2="BackgroundImageFix" result="shape"/>
<feColorMatrix in="SourceAlpha" type="matrix" values="0 0 0 0 0 0 0 0 0 0 0 0 0 0 0 0 0 0 127 0" result="hardAlpha"/>
<feOffset dy="2"/>
<feGaussianBlur stdDeviation="3.5"/>
<feComposite in2="hardAlpha" operator="arithmetic" k2="-1" k3="1"/>
<feColorMatrix type="matrix" values="0 0 0 0 0 0 0 0 0 0 0 0 0 0 0 0 0 0 0.2 0"/>
<feBlend mode="normal" in2="shape" result="effect1_innerShadow"/>
</filter>
</defs>
</svg>
