<svg width="22" height="22" viewBox="0 0 22 22" fill="none" xmlns="http://www.w3.org/2000/svg">
<path d="M18.7764 3.22357C14.4788 -1.07418 7.52194 -1.07487 3.22359 3.22357C-1.07421 7.52132 -1.07485 14.478 3.22359 18.7764C7.52126 23.0742 14.4781 23.0748 18.7764 18.7764C23.0742 14.4787 23.0748 7.52197 18.7764 3.22357ZM18.3168 17.2088C17.8029 16.7493 17.2533 16.3427 16.674 15.9922C17.0569 14.6695 17.2837 13.2139 17.3374 11.7008H20.5707C20.4245 13.7403 19.6409 15.6535 18.3168 17.2088ZM1.4293 11.7008H4.6626C4.71622 13.2139 4.94309 14.6695 5.32601 15.9922C4.74666 16.3427 4.19703 16.7493 3.6832 17.2088C2.35912 15.6535 1.57553 13.7403 1.4293 11.7008ZM3.68324 4.79125C4.19707 5.25073 4.74671 5.65736 5.32606 6.00778C4.94313 7.33053 4.71627 8.78611 4.66264 10.2992H1.4293C1.57553 8.25974 2.35912 6.34657 3.68324 4.79125ZM10.2992 6.15264C9.15622 6.07089 8.05415 5.78938 7.03246 5.32496C7.62666 3.79485 8.72207 1.95965 10.2992 1.50485V6.15264ZM10.2992 7.55692V10.2992H6.06486C6.11337 9.01928 6.29473 7.79022 6.59634 6.66566C7.75739 7.17322 9.00608 7.47633 10.2992 7.55692ZM10.2992 11.7008V14.4431C9.00608 14.5237 7.75739 14.8268 6.59634 15.3344C6.29473 14.2098 6.11337 12.9808 6.06486 11.7008H10.2992ZM10.2992 15.8474V20.4952C8.72216 20.0404 7.62675 18.2054 7.03246 16.6751C8.05415 16.2107 9.15622 15.9292 10.2992 15.8474ZM11.7008 15.8474C12.8438 15.9292 13.9459 16.2107 14.9676 16.6751C14.3733 18.2053 13.2779 20.0404 11.7008 20.4952V15.8474ZM11.7008 14.4431V11.7008H15.9352C15.8866 12.9808 15.7053 14.2098 15.4037 15.3344C14.2426 14.8268 12.9939 14.5237 11.7008 14.4431ZM11.7008 10.2992V7.55692C12.9939 7.47633 14.2426 7.17322 15.4037 6.66566C15.7053 7.79022 15.8866 9.01928 15.9352 10.2992H11.7008ZM11.7008 6.15264V1.50489C13.2779 1.95969 14.3734 3.79489 14.9676 5.32501C13.9459 5.78938 12.8438 6.07089 11.7008 6.15264ZM14.8487 2.20458C15.7458 2.59743 16.5828 3.13011 17.333 3.79103C16.9759 4.1059 16.5991 4.39141 16.2056 4.64674C15.8562 3.78154 15.4098 2.94072 14.8487 2.20458ZM5.79438 4.64674C5.40089 4.39141 5.0241 4.1059 4.66694 3.79103C5.4172 3.13011 6.25415 2.59743 7.15126 2.20458C6.5902 2.94081 6.14381 3.78162 5.79438 4.64674ZM5.79442 17.3533C6.14381 18.2185 6.59028 19.0593 7.1513 19.7955C6.2542 19.4026 5.41725 18.87 4.66698 18.209C5.0241 17.8942 5.40093 17.6086 5.79442 17.3533ZM16.2056 17.3533C16.5991 17.6086 16.9759 17.8942 17.333 18.209C16.5828 18.8699 15.7458 19.4026 14.8487 19.7954C15.4097 19.0594 15.8562 18.2185 16.2056 17.3533ZM17.3374 10.2992C17.2838 8.78615 17.0569 7.33053 16.674 6.00782C17.2534 5.6574 17.8029 5.25077 18.3168 4.7913C19.6409 6.34657 20.4245 8.25974 20.5707 10.2992H17.3374Z" fill="#A9A698"/>
</svg>
