<svg width="15" height="18" viewBox="0 0 15 18" fill="none" xmlns="http://www.w3.org/2000/svg">
<path d="M7.35 8.69999C8.54518 8.69999 9.58011 8.27132 10.4257 7.42554C11.2713 6.5799 11.7 5.54522 11.7 4.34986C11.7 3.15491 11.2713 2.12009 10.4256 1.27417C9.57983 0.428675 8.54504 0 7.35 0C6.15468 0 5.12002 0.428675 4.27441 1.27431C3.4288 2.11995 3 3.15478 3 4.34986C3 5.54522 3.4288 6.58004 4.27455 7.42568C5.1203 8.27118 6.15509 8.69999 7.35 8.69999Z" fill="#A9A698"/>
<path d="M14.9636 13.8431C14.9394 13.4926 14.8903 13.1102 14.818 12.7064C14.745 12.2996 14.651 11.915 14.5386 11.5635C14.4224 11.2002 14.2643 10.8415 14.069 10.4977C13.8663 10.1408 13.6282 9.83009 13.361 9.57439C13.0815 9.3069 12.7394 9.09183 12.3438 8.93495C11.9496 8.7789 11.5127 8.69984 11.0454 8.69984C10.8619 8.69984 10.6844 8.77519 10.3416 8.9985C10.1306 9.13616 9.88385 9.29537 9.60842 9.47146C9.3729 9.62161 9.05384 9.76229 8.65976 9.88966C8.27527 10.0141 7.88489 10.0773 7.49958 10.0773C7.11427 10.0773 6.72403 10.0141 6.33913 9.88966C5.94546 9.76243 5.6264 9.62175 5.39116 9.4716C5.11833 9.29715 4.87142 9.13794 4.6573 8.99836C4.31493 8.77506 4.13729 8.69971 3.95376 8.69971C3.48629 8.69971 3.04954 8.7789 2.65546 8.93509C2.26013 9.09169 1.9179 9.30676 1.63821 9.57453C1.37114 9.83036 1.13288 10.141 0.930418 10.4977C0.735226 10.8415 0.577207 11.2001 0.460888 11.5637C0.348547 11.9152 0.254586 12.2996 0.181612 12.7064C0.109324 13.1097 0.0602172 13.4922 0.0359383 13.8435C0.0120709 14.1877 0 14.545 0 14.9058C0 15.8449 0.298343 16.6051 0.886661 17.1658C1.46771 17.719 2.23654 17.9997 3.17149 17.9997H11.8285C12.7634 17.9997 13.532 17.7192 14.1132 17.1658C14.7016 16.6055 15 15.8452 15 14.9057C14.9998 14.5432 14.9876 14.1857 14.9636 13.8431Z" fill="#A9A698"/>
</svg>
