<svg viewBox="0 0 157 52" fill="none" xmlns="http://www.w3.org/2000/svg">
<path d="M16.0467 2.27129H1.20349V18.164C1.20349 21.9637 0.704007 26.1081 1.27013 29.8587C1.8768 33.8779 1.80322 37.8547 1.80322 41.9198C1.80322 44.414 0.854203 49.6496 4.56862 49.6496H33.2888C40.2162 49.6496 47.0394 49.6281 53.946 49.1165C57.7164 48.8372 61.4545 49.1585 65.2076 49.3331C68.1469 49.4698 71.0242 50.507 73.9369 50.5492C76.9486 50.5929 79.8037 49.769 82.7829 49.6663C85.3704 49.5771 87.9731 49.6496 90.5626 49.6496C100.013 49.6496 109.43 49.8569 118.85 50.2494C125.721 50.5357 132.609 50.5492 139.507 50.5492C143.426 50.5492 147.115 49.7161 150.902 48.6834C152.458 48.259 155.633 48.4115 155.633 46.5011C155.633 44.9947 155.933 43.5415 155.933 42.0198V31.9577C155.933 29.0764 156.596 25.2756 155.783 22.512C155.265 20.7528 155.633 18.4871 155.633 16.6647C155.633 15.1056 155.333 13.5887 155.333 12.0002C155.333 9.73253 154.901 7.94173 154.5 5.73637C154.31 4.69354 154.555 2.87102 153.084 2.87102C151.791 2.87102 150.012 2.25898 148.736 1.97143C146.675 1.50696 144.271 1.3717 142.156 1.3717H133.743C126.375 1.3717 119.006 1.09076 111.87 3.32081C108.63 4.3331 104.716 3.7706 101.341 3.7706C97.1755 3.7706 92.7301 3.74098 88.5969 3.17088C85.6559 2.76522 82.8175 2.01217 79.8342 1.7382C75.8816 1.37521 71.9092 1.07184 67.9397 1.07184H53.3963C44.5837 1.07184 35.8499 0.660873 27.025 1.80484C23.4795 2.26444 19.6312 2.27129 16.0467 2.27129Z" fill="#373737" stroke="#373737" stroke-linecap="round" stroke-linejoin="round"/>
</svg>
