<svg viewBox="0 0 156 52" fill="none" xmlns="http://www.w3.org/2000/svg">
<path d="M2.73667 3.58313C8.13817 3.58313 14.0977 2.88091 19.4124 3.9018C22.4067 4.47696 25.2817 4.40255 28.332 4.40255C40.7078 4.40255 52.8918 3.17342 65.2708 3.17342C68.7329 3.17342 72.1912 2.76371 75.5962 2.76371C80.9358 2.76371 86.2192 1.94429 91.5206 1.94429C100.495 1.94429 109.193 1.81755 118.11 1.14763C122.347 0.829301 126.727 1.12487 130.98 1.12487C134.535 1.12487 137.619 2.59466 141.039 2.76371C144.182 2.91906 147.239 3.17342 150.419 3.17342C151.427 3.17342 151.946 2.9957 151.946 4.08389C151.946 6.29081 152.75 8.30059 153.158 10.4572C154.339 16.6983 155 23.4474 155 29.8046C155 35.3822 154.931 40.3247 153.788 45.6922C153.604 46.5555 153.655 48.3369 152.77 48.8561C151.064 49.8575 146.666 49.061 144.723 49.061C140.134 49.061 135.545 49.061 130.956 49.061C126.106 49.061 120.887 49.2154 116.074 49.7893C109.928 50.5222 103.577 49.7359 97.4347 50.495C87.5612 51.715 76.6595 50.4693 66.8705 49.4479C63.8329 49.131 56.7832 50.1064 54 49.061C52.1981 48.3841 49.1697 48.9699 47.2376 48.9699C45.2016 48.9699 43.1656 48.9699 41.1296 48.9699C34.2547 48.9699 30.3894 48.2415 23.4844 48.2415C18.3588 48.2415 13.0935 49.1629 7.97208 48.6285C6.64473 48.49 5.39148 47.868 4.04552 47.8318C2.11021 47.7799 2.39441 47.5637 1.96105 45.7833C0.173175 38.4378 1.42781 29.8231 1.42781 22.3388C1.42781 16.3284 1.8641 10.4202 1.8641 4.40255" stroke="#373737" stroke-linecap="round" stroke-linejoin="round"/>
</svg>
