<svg width="188" height="52" viewBox="0 0 188 52" fill="none" xmlns="http://www.w3.org/2000/svg">
<path d="M168.966 2.28281H186.756V18.3196C186.756 22.1537 187.355 26.3357 186.676 30.1202C185.949 34.1759 186.037 38.1887 186.037 42.2907C186.037 44.8075 187.175 50.0906 182.723 50.0906H148.3C139.997 50.0906 131.819 50.0689 123.542 49.5526C119.022 49.2708 114.542 49.595 110.044 49.7712C106.521 49.9091 103.073 50.9557 99.5815 50.9983C95.9718 51.0424 92.5498 50.211 88.9791 50.1074C85.8779 50.0173 82.7584 50.0906 79.6547 50.0906C68.3276 50.0906 57.0414 50.2997 45.7512 50.6957C37.5155 50.9846 29.2595 50.9983 20.9925 50.9983C16.2957 50.9983 11.8737 50.1577 7.33527 49.1156C5.4702 48.6874 1.66472 48.8413 1.66472 46.9135C1.66472 45.3935 1.30531 43.9271 1.30531 42.3916V32.2383C1.30531 29.3309 0.510834 25.4956 1.48502 22.707C2.10516 20.9318 1.66472 18.6456 1.66472 16.8067C1.66472 15.2334 2.02412 13.7028 2.02412 12.0999C2.02412 9.81167 2.54187 8.00465 3.02246 5.7793C3.24971 4.72702 2.95668 2.88797 4.7196 2.88797C6.26945 2.88797 8.40152 2.27039 9.93092 1.98023C12.4012 1.51155 15.2829 1.37507 17.8178 1.37507H27.901C36.7324 1.37507 45.5642 1.09158 54.1172 3.34185C57.9997 4.36331 62.6916 3.79572 66.7362 3.79572C71.7288 3.79572 77.0569 3.76582 82.0108 3.19055C85.5357 2.78122 88.9377 2.02135 92.5132 1.74489C97.2506 1.37861 102.012 1.07249 106.769 1.07249H124.2C134.763 1.07249 145.231 0.657799 155.808 1.81213C160.057 2.2759 164.67 2.28281 168.966 2.28281Z" fill="#373737" stroke="#373737" stroke-linecap="round" stroke-linejoin="round"/>
</svg>
