<svg viewBox="0 0 240 240" fill="none" xmlns="http://www.w3.org/2000/svg">
<g filter="url(#filter0_i)">
<path d="M120 0L126.029 4.95788L132.543 0.657372L138.021 6.21831L144.949 2.62229L149.816 8.72535L157.082 5.87321L161.284 12.4515L168.808 10.3745L172.3 17.356L180 16.077L182.742 23.3852L190.534 22.918L192.498 30.4728L200.296 30.8226L201.459 38.5413L209.177 39.7043L209.527 47.5023L217.082 49.4658L216.615 57.2576L223.923 60L222.644 67.7003L229.625 71.1916L227.548 78.716L234.127 82.918L231.275 90.184L237.378 95.0506L233.782 101.979L239.343 107.457L235.042 113.971L240 120L235.042 126.029L239.343 132.543L233.782 138.021L237.378 144.949L231.275 149.816L234.127 157.082L227.548 161.284L229.625 168.808L222.644 172.3L223.923 180L216.615 182.742L217.082 190.534L209.527 192.498L209.177 200.296L201.459 201.459L200.296 209.177L192.498 209.527L190.534 217.082L182.742 216.615L180 223.923L172.3 222.644L168.808 229.625L161.284 227.548L157.082 234.127L149.816 231.275L144.949 237.378L138.021 233.782L132.543 239.343L126.029 235.042L120 240L113.971 235.042L107.457 239.343L101.979 233.782L95.0506 237.378L90.184 231.275L82.918 234.127L78.716 227.548L71.1916 229.625L67.7003 222.644L60 223.923L57.2576 216.615L49.4658 217.082L47.5023 209.527L39.7043 209.177L38.5413 201.459L30.8226 200.296L30.4728 192.498L22.918 190.534L23.3852 182.742L16.077 180L17.356 172.3L10.3745 168.808L12.4515 161.284L5.87321 157.082L8.72535 149.816L2.62229 144.949L6.21831 138.021L0.657372 132.543L4.95788 126.029L0 120L4.95788 113.971L0.657372 107.457L6.21831 101.979L2.62229 95.0506L8.72535 90.184L5.87321 82.918L12.4515 78.716L10.3745 71.1916L17.356 67.7003L16.077 60L23.3852 57.2576L22.918 49.4658L30.4728 47.5023L30.8226 39.7043L38.5413 38.5413L39.7043 30.8226L47.5023 30.4728L49.4658 22.918L57.2576 23.3852L60 16.077L67.7003 17.356L71.1916 10.3745L78.716 12.4515L82.918 5.87321L90.184 8.72535L95.0506 2.62229L101.979 6.21831L107.457 0.657372L113.971 4.95788L120 0Z" fill="#EAE3CC"/>
</g>
<defs>
<filter id="filter0_i" x="0" y="0" width="240" height="242" filterUnits="userSpaceOnUse" color-interpolation-filters="sRGB">
<feFlood flood-opacity="0" result="BackgroundImageFix"/>
<feBlend mode="normal" in="SourceGraphic" in2="BackgroundImageFix" result="shape"/>
<feColorMatrix in="SourceAlpha" type="matrix" values="0 0 0 0 0 0 0 0 0 0 0 0 0 0 0 0 0 0 127 0" result="hardAlpha"/>
<feOffset dy="2"/>
<feGaussianBlur stdDeviation="2"/>
<feComposite in2="hardAlpha" operator="arithmetic" k2="-1" k3="1"/>
<feColorMatrix type="matrix" values="0 0 0 0 0 0 0 0 0 0 0 0 0 0 0 0 0 0 0.25 0"/>
<feBlend mode="normal" in2="shape" result="effect1_innerShadow"/>
</filter>
</defs>
</svg>
